<?xml version="1.0" encoding="utf-8"?><!DOCTYPE svg PUBLIC "-//W3C//DTD SVG 1.1//EN" "http://www.w3.org/Graphics/SVG/1.1/DTD/svg11.dtd"><svg xmlns="http://www.w3.org/2000/svg" width="23" height="23" viewBox="38.5 38.5 23 23" enable-background="new 38.5 38.5 23 23"><path fill="#fff" d="M58 45.1c-.6.3-1.2.4-1.9.5.7-.4 1.2-1.1 1.4-1.8-.6.4-1.3.6-2.1.8-.6-.6-1.4-1-2.4-1-1.8 0-3.3 1.5-3.3 3.3 0 .3 0 .5.1.8-2.7-.2-5.1-1.5-6.7-3.4-.3.5-.4 1.1-.4 1.6 0 1.1.6 2.1 1.5 2.7-.5 0-1.1-.2-1.5-.4 0 1.6 1.1 2.9 2.6 3.2-.3.1-.6.1-.9.1-.2 0-.4 0-.6-.1.4 1.3 1.6 2.2 3.1 2.3-1.1.9-2.5 1.4-4.1 1.4H42c1.4.9 3.2 1.5 5 1.5 6 0 9.3-5 9.3-9.3v-.4c.7-.6 1.2-1.2 1.7-1.8z"/></svg>