<?xml version="1.0" encoding="utf-8"?><!DOCTYPE svg PUBLIC "-//W3C//DTD SVG 1.1//EN" "http://www.w3.org/Graphics/SVG/1.1/DTD/svg11.dtd"><svg xmlns="http://www.w3.org/2000/svg" width="147" height="31" viewBox="0 0 147 31"><path fill="#fff" d="M26.1 22.4c0 4.3-5.5 5.3-8 6.4-1.6.7-3.3 1.2-5 1.8-1.8-.6-4.1-1.5-5.8-2C-.3 25.8.1 24.4.1 22.5V.5C8.7 2.6 18 2.6 26 .5v21.9h.1z"/><path fill="#007360" d="M25.2 21.9V1.7c-7.5 2-16.1 2-24 0V22c0 1.8-.4 3 6.7 5.6 1.6.6 3.7 1.3 5.4 1.9 1.5-.5 3.1-1.1 4.6-1.7 2.2-1 7.3-1.9 7.3-5.9z"/><path fill="#9D0917" d="M2.2 7.7h22v13.1h-22V7.7z"/><path fill="#E6D1B9" d="M24.1 8.1c-7 1.6-15 1.9-21.9 0V3c6.7 1.5 15.3 1.7 21.9 0v5.1zM24.1 15.6l-3.7.7v-3.7c1.2-.2 2.1-.4 3.7-.8v3.8zM6 16.4c-1.3-.1-2.1-.3-3.9-.7v-3.8c1.5.4 2.7.5 3.9.8v3.7zM17.8 17.1h-3.9l-.7.6-.6-.6h-4v-6.5h4l.6.6.6-.6h4v6.5zM19.5 18.8h-5.3l-1 .9-1-.9H6.9v-6.9l.9-.7v6.7h4.7l.7.7.9-.7h4.5v-6.7l.9.8v6.8zM24.1 22.3c-.3 2.5-3.2 3.3-4.1 3.8-2.3.9-4.5 1.6-6.8 2.5-8.7-3.3-10.9-3.8-11-6.3v-2.8c6.9 1.5 14.6 1.7 21.9 0v2.8z"/><path fill="#007360" d="M13.9 23.5V22l-.6-.5-.5.5v1.5l.4.8v1.3h.3v-1.3l.4-.8zM16.1 24.3v-.7h-1.5l-.7.8v1.2h.5v-.7l.6-.6.7.5.4-.5zM10.6 24.3v-.7h1.5l.6.8v1.2h-.4v-.7l-.6-.6-.7.5-.4-.5zM12.7 26.7v-.6h-.9v.4l.6.6.3-.4zM13.9 26.7v-.6h1v.4l-.7.6-.3-.4zM13.9 27.3l-.4-.6v-.6h-.3v.6l-.5.6.6.8.6-.8zM6.4 22.2v-1.1l-.4-.4-.5.4v1.1l.3.6v.9h.3v-.9l.3-.6zM8 22.8v-.6H6.9l-.5.6v.9h.3v-.6l.5-.3.4.3.4-.3zM3.9 22.8v-.6h1.2l.4.6v.9h-.3v-.6l-.4-.3-.5.3-.4-.3zM5.5 24.5v-.4l-.7-.1v.4l.5.4.2-.3zM6.4 24.5v-.4l.7-.1v.4l-.5.4-.2-.3zM6.4 25l-.3-.5v-.4h-.3v.4l-.3.5.4.5.5-.5zM21.1 22.2v-1.1l-.4-.4-.4.4v1.1l.3.6v.9h.2v-.9l.3-.6zM22.7 22.8v-.6h-1.1l-.4.6v.9h.3v-.6l.4-.3.5.3.3-.3zM18.7 22.8v-.6h1.1l.5.6v.9h-.4v-.6l-.4-.3-.5.3-.3-.3zM20.3 24.5v-.4l-.7-.1v.4l.5.4.2-.3zM21.2 24.5v-.4l.7-.1v.4l-.5.4-.2-.3zM21.1 25l-.3-.5v-.4h-.2v.4l-.3.5.4.5.4-.5zM22.7 5.7h-1.5l-.5-1.5-.5 1.5h-1.5l1.2.8-.4 1.5 1.2-.9L22 8l-.5-1.5 1.2-.8zM7.9 5.7H6.5l-.6-1.5-.4 1.5H4l1.2.8L4.8 8 6 7.1l1.3.9-.5-1.5 1.1-.8zM15.2 6.3l-1.4-.1-.5-1.3-.5 1.3-1.4.1 1.2.9-.5 1.4 1.2-.8 1.3.8-.5-1.4 1.1-.9z"/><path fill-rule="evenodd" clip-rule="evenodd" fill="#fff" d="M70.2 17.7c.8 0 1.1 0 1.1-.7 0-1.6-1.8-6.4-6-6.4s-6.6 4.3-6.6 9.5c0 2.7 1.8 8.3 6.8 8.3 3 0 6-2.9 6-3.8 0-.1 0-.3-.1-.3-.7 0-1.9 2.1-4.8 2.1-2.1 0-5.4-2-5.4-8.7h9zm-9-1.1c0-2.2 1.5-5.1 3.6-5.1 1.9 0 3.7 2 3.7 4.3 0 .6-.2.8-.7.8h-6.6zM145.5 17.7c.8 0 1.1 0 1.1-.7 0-1.6-1.8-6.4-6-6.4s-6.6 4.3-6.6 9.5c0 2.7 1.8 8.3 6.8 8.3 3 0 6-2.9 6-3.8 0-.1 0-.3-.1-.3-.7 0-1.9 2.1-4.8 2.1-2.1 0-5.4-2-5.4-8.7h9zm-9-1.1c0-2.2 1.5-5.1 3.6-5.1 1.9 0 3.7 2 3.7 4.3 0 .6-.2.8-.7.8h-6.6zM112.9 5c-.4 0-1.4 1.7-1.4 2.2 0 .4 1 2.1 1.4 2.1.4 0 1.4-1.6 1.4-2.1s-.9-2.2-1.4-2.2zM111.8 24.5c0 3.6-1.6 2.2-1.9 3.1-.1.4.6.4.9.4.4 0 1.2-.4 2.3-.4 1.4 0 1.7.4 2.4.4.4 0 .7-.2.6-.5-.3-.8-1.9-.1-1.9-2.1V11.1c0-.4-.2-.6-.4-.6-.8 0-1.3 1.4-3.4 2.1-.2 0-.5.1-.5.3 0 .8 1.6-1.1 1.8 2.2v9.4zM92.8 5c-.4 0-1.4 1.7-1.4 2.2 0 .4 1 2.1 1.4 2.1.4 0 1.4-1.6 1.4-2.1S93.2 5 92.8 5zM91.6 24.5c0 3.6-1.6 2.2-1.9 3.1-.1.4.6.4.9.4.4 0 1.2-.4 2.3-.4 1.4 0 1.7.4 2.4.4.4 0 .7-.2.6-.5-.3-.8-1.9-.1-1.9-2.1V11.1c0-.4-.2-.6-.4-.6-.8 0-1.3 1.4-3.4 2.1-.2 0-.5.1-.5.3 0 .8 1.6-1.1 1.8 2.2v9.4zM121.9 15.3c0-.6 1.1-3.2 4-3.2 2.7 0 3.9 3 3.9 5.1v7.6c0 2.6-1.1 2-1.4 2.6-.2.3.2.5.6.5.4 0 1.1-.2 2.4-.2 1.7 0 2.5.2 2.9.2.3 0 1-.3.6-.6-.9-.7-2.6.1-2.6-2.7V18c0-3.1-1-7.6-5.5-7.6-3.3 0-5 3-4.9 2.5v-2.2c0-.4-.2-.6-.4-.6-.8 0-1.4 1.3-4 2.1-.2 0-.7 0-.7.4 0 .8 2.6-.6 2.6 2.2v10c0 1.8-.7 2.3-2.4 2.4-.3.1-.4.4-.4.5.1.4.9.3 1.4.3.4 0 1.1-.2 2.9-.2 2 0 2.6.2 3.2.2.5 0 1.1-.2.7-.6-.5-.5-3 .1-3-2.7v-9.4z"/><path fill="#fff" d="M57 24.6c.2 2.9 2.5 1.6 2.5 2.8 0 .3-.4.3-.8.3-.6 0-1.7-.1-3-.1-1 0-2 .1-2.8.1-.3 0-.3-.2-.3-.3 0-1 2-.3 2-2.8l-.3-13.3c0-.9-.2-1.3-.4-1.3s-.5.3-.8 1l-6.6 14.4c-.2.3-.7 1.7-1 1.7-.3 0-.5-.8-.6-1L38 10.9c-.1-.3-.3-.4-.4-.4-.1 0-.2.2-.2.5L37 23c-.2 4.5 2.9 3 2.9 4.3 0 .3-.4.4-.8.4s-1.9-.1-2.8-.1c-1.7 0-2.2.1-2.8.1-.2 0-.3-.2-.3-.4 0-1.2 2 .2 2.3-3.3.4-5.6.8-9.2.8-12.8 0-8-3-6.1-3-7.3 0-.3.3-.4.5-.4.6 0 1.1.1 1.8.1.6 0 1.2-.1 1.7-.1.4 0 .5.6.7 1l7.6 17.4c.4.7.5 1 .7 1 .2 0 .5-.7 1-1.8l7.6-16.3c.2-.4.4-1.2.8-1.2.3 0 1.3.1 1.5.1.7 0 1-.1 1.5-.1.2 0 .3.2.3.4 0 1.1-2.6-.4-2.4 3.7l.4 16.9zM84.3 6.3c0-2.4-2.9-1.4-2.9-2.2 0-.2.1-.4.3-.4 2.8-.7 3.8-2.2 4.6-2.2.2 0 .4.2.4.6V26c0 .5.7.8 2 1 .3 0 .4 0 .4.4 0 .3-1 .6-2.3.6-1 0-1.8.5-2.1.5-.3 0-.4-.3-.4-.6v-2.2h-.1c-1.3 1.7-3.3 2.8-5.4 2.8-4.1 0-6.5-4.1-6.5-8.2 0-4.7 3.1-9.5 7.7-9.5 1.5 0 3.1.5 4.3 1.4V6.3zm0 10c0-3-2.2-4.7-4.9-4.7-3.5 0-5 3.5-5 6.9 0 3.3 2.2 8.2 5.7 8.2 3.1 0 4.2-2.1 4.2-3.5v-6.9zM96.2 19.8c0-5 3.2-9.2 7.7-9.2 1.8 0 4.2.6 4.3 1.5.1.9 0 1.9 0 2.4 0 .6-.1.8-.3.8-.4 0-.7-.8-.9-.9-1.2-1.9-2.8-2.5-4.4-2.5-3 0-3.9 3.5-3.9 6.4 0 4.3 2 7.9 6 7.9 2.8 0 4.3-2.3 4.9-2.3.1 0 .3.1.3.2 0 .6-2.1 4.1-7 4.1-4 .1-6.7-3.9-6.7-8.4z"/></svg>